<mxfile host="app.diagrams.net" modified="2021-10-14T11:10:09.417Z" agent="5.0 (Windows NT 10.0; Win64; x64) AppleWebKit/537.36 (KHTML, like Gecko) Chrome/94.0.4606.81 Safari/537.36" etag="fDWZDhOXNPdlRCaFxVt4" version="15.5.2" type="github">
  <diagram id="C5RBs43oDa-KdzZeNtuy" name="Page-1">
    <mxGraphModel dx="1038" dy="2885" grid="1" gridSize="10" guides="1" tooltips="1" connect="1" arrows="1" fold="1" page="1" pageScale="1" pageWidth="827" pageHeight="1169" math="0" shadow="0">
      <root>
        <mxCell id="WIyWlLk6GJQsqaUBKTNV-0" />
        <mxCell id="WIyWlLk6GJQsqaUBKTNV-1" parent="WIyWlLk6GJQsqaUBKTNV-0" />
        <mxCell id="WIyWlLk6GJQsqaUBKTNV-5" value="No" style="edgeStyle=orthogonalEdgeStyle;rounded=0;html=1;jettySize=auto;orthogonalLoop=1;fontSize=11;endArrow=block;endFill=0;endSize=8;strokeWidth=1;shadow=0;labelBackgroundColor=none;" parent="WIyWlLk6GJQsqaUBKTNV-1" source="WIyWlLk6GJQsqaUBKTNV-6" target="WIyWlLk6GJQsqaUBKTNV-7" edge="1">
          <mxGeometry y="10" relative="1" as="geometry">
            <mxPoint as="offset" />
          </mxGeometry>
        </mxCell>
        <mxCell id="dIexNZIgWlCwj1Lqrp9l-28" value="yes" style="edgeStyle=orthogonalEdgeStyle;rounded=0;orthogonalLoop=1;jettySize=auto;html=1;" edge="1" parent="WIyWlLk6GJQsqaUBKTNV-1" source="WIyWlLk6GJQsqaUBKTNV-6" target="dIexNZIgWlCwj1Lqrp9l-26">
          <mxGeometry relative="1" as="geometry" />
        </mxCell>
        <mxCell id="WIyWlLk6GJQsqaUBKTNV-6" value="Is there an empty&lt;br&gt;table available?" style="rhombus;whiteSpace=wrap;html=1;shadow=0;fontFamily=Helvetica;fontSize=12;align=center;strokeWidth=1;spacing=6;spacingTop=-4;fillColor=#fff2cc;strokeColor=#d6b656;" parent="WIyWlLk6GJQsqaUBKTNV-1" vertex="1">
          <mxGeometry x="10" y="-930" width="200" height="90" as="geometry" />
        </mxCell>
        <mxCell id="dIexNZIgWlCwj1Lqrp9l-35" value="ok" style="edgeStyle=orthogonalEdgeStyle;rounded=0;orthogonalLoop=1;jettySize=auto;html=1;entryX=1;entryY=0.5;entryDx=0;entryDy=0;" edge="1" parent="WIyWlLk6GJQsqaUBKTNV-1" source="WIyWlLk6GJQsqaUBKTNV-7" target="dIexNZIgWlCwj1Lqrp9l-26">
          <mxGeometry relative="1" as="geometry">
            <Array as="points">
              <mxPoint x="320" y="-780" />
            </Array>
          </mxGeometry>
        </mxCell>
        <mxCell id="WIyWlLk6GJQsqaUBKTNV-7" value="Ask a waiter/waitress to help you get seated." style="rounded=1;whiteSpace=wrap;html=1;fontSize=12;glass=0;strokeWidth=1;shadow=0;" parent="WIyWlLk6GJQsqaUBKTNV-1" vertex="1">
          <mxGeometry x="260" y="-917.5" width="120" height="65" as="geometry" />
        </mxCell>
        <mxCell id="WIyWlLk6GJQsqaUBKTNV-8" value="Yes" style="rounded=0;html=1;jettySize=auto;orthogonalLoop=1;fontSize=11;endArrow=block;endFill=0;endSize=8;strokeWidth=1;shadow=0;labelBackgroundColor=none;edgeStyle=orthogonalEdgeStyle;" parent="WIyWlLk6GJQsqaUBKTNV-1" source="WIyWlLk6GJQsqaUBKTNV-10" target="WIyWlLk6GJQsqaUBKTNV-11" edge="1">
          <mxGeometry x="0.3333" y="20" relative="1" as="geometry">
            <mxPoint as="offset" />
          </mxGeometry>
        </mxCell>
        <mxCell id="dIexNZIgWlCwj1Lqrp9l-47" value="no" style="edgeStyle=orthogonalEdgeStyle;rounded=0;orthogonalLoop=1;jettySize=auto;html=1;" edge="1" parent="WIyWlLk6GJQsqaUBKTNV-1" source="WIyWlLk6GJQsqaUBKTNV-10" target="dIexNZIgWlCwj1Lqrp9l-46">
          <mxGeometry relative="1" as="geometry" />
        </mxCell>
        <mxCell id="WIyWlLk6GJQsqaUBKTNV-10" value="Do you know what&lt;br&gt;to order from the menu?" style="rhombus;whiteSpace=wrap;html=1;shadow=0;fontFamily=Helvetica;fontSize=12;align=center;strokeWidth=1;spacing=6;spacingTop=-4;fillColor=#fff2cc;strokeColor=#d6b656;" parent="WIyWlLk6GJQsqaUBKTNV-1" vertex="1">
          <mxGeometry x="15" y="-530" width="190" height="80" as="geometry" />
        </mxCell>
        <mxCell id="dIexNZIgWlCwj1Lqrp9l-49" value="" style="edgeStyle=orthogonalEdgeStyle;rounded=0;orthogonalLoop=1;jettySize=auto;html=1;" edge="1" parent="WIyWlLk6GJQsqaUBKTNV-1" source="WIyWlLk6GJQsqaUBKTNV-11" target="dIexNZIgWlCwj1Lqrp9l-25">
          <mxGeometry relative="1" as="geometry" />
        </mxCell>
        <mxCell id="WIyWlLk6GJQsqaUBKTNV-11" value="Order the chosen meal." style="rounded=1;whiteSpace=wrap;html=1;fontSize=12;glass=0;strokeWidth=1;shadow=0;" parent="WIyWlLk6GJQsqaUBKTNV-1" vertex="1">
          <mxGeometry x="50" y="-390" width="120" height="40" as="geometry" />
        </mxCell>
        <mxCell id="dIexNZIgWlCwj1Lqrp9l-31" value="" style="edgeStyle=orthogonalEdgeStyle;rounded=0;orthogonalLoop=1;jettySize=auto;html=1;" edge="1" parent="WIyWlLk6GJQsqaUBKTNV-1" source="dIexNZIgWlCwj1Lqrp9l-1" target="dIexNZIgWlCwj1Lqrp9l-30">
          <mxGeometry relative="1" as="geometry" />
        </mxCell>
        <mxCell id="dIexNZIgWlCwj1Lqrp9l-1" value="Start:&lt;br&gt;Stepping in the&amp;nbsp;&lt;br&gt;restaurant." style="ellipse;whiteSpace=wrap;html=1;fillColor=#d5e8d4;strokeColor=#82b366;" vertex="1" parent="WIyWlLk6GJQsqaUBKTNV-1">
          <mxGeometry x="50" y="-1100" width="120" height="80" as="geometry" />
        </mxCell>
        <mxCell id="dIexNZIgWlCwj1Lqrp9l-2" value="End:&lt;br&gt;Stepping out of the&amp;nbsp;&lt;br&gt;restaurant." style="ellipse;whiteSpace=wrap;html=1;fillColor=#d5e8d4;strokeColor=#82b366;" vertex="1" parent="WIyWlLk6GJQsqaUBKTNV-1">
          <mxGeometry x="130" y="290" width="120" height="80" as="geometry" />
        </mxCell>
        <mxCell id="dIexNZIgWlCwj1Lqrp9l-40" value="yes" style="edgeStyle=orthogonalEdgeStyle;rounded=0;orthogonalLoop=1;jettySize=auto;html=1;" edge="1" parent="WIyWlLk6GJQsqaUBKTNV-1" source="dIexNZIgWlCwj1Lqrp9l-5" target="dIexNZIgWlCwj1Lqrp9l-37">
          <mxGeometry relative="1" as="geometry" />
        </mxCell>
        <mxCell id="dIexNZIgWlCwj1Lqrp9l-42" value="No" style="edgeStyle=orthogonalEdgeStyle;rounded=0;orthogonalLoop=1;jettySize=auto;html=1;" edge="1" parent="WIyWlLk6GJQsqaUBKTNV-1" source="dIexNZIgWlCwj1Lqrp9l-5" target="dIexNZIgWlCwj1Lqrp9l-41">
          <mxGeometry relative="1" as="geometry" />
        </mxCell>
        <mxCell id="dIexNZIgWlCwj1Lqrp9l-5" value="Is the waiter at&lt;br&gt;your&amp;nbsp;table?" style="rhombus;whiteSpace=wrap;html=1;shadow=0;fontFamily=Helvetica;fontSize=12;align=center;strokeWidth=1;spacing=6;spacingTop=-4;fillColor=#fff2cc;strokeColor=#d6b656;" vertex="1" parent="WIyWlLk6GJQsqaUBKTNV-1">
          <mxGeometry x="10" y="-730" width="200" height="90" as="geometry" />
        </mxCell>
        <mxCell id="dIexNZIgWlCwj1Lqrp9l-7" value="" style="rounded=0;html=1;jettySize=auto;orthogonalLoop=1;fontSize=11;endArrow=block;endFill=0;endSize=8;strokeWidth=1;shadow=0;labelBackgroundColor=none;edgeStyle=orthogonalEdgeStyle;" edge="1" target="dIexNZIgWlCwj1Lqrp9l-11" parent="WIyWlLk6GJQsqaUBKTNV-1">
          <mxGeometry relative="1" as="geometry">
            <mxPoint x="620" y="-950" as="sourcePoint" />
          </mxGeometry>
        </mxCell>
        <mxCell id="dIexNZIgWlCwj1Lqrp9l-10" value="No" style="edgeStyle=orthogonalEdgeStyle;rounded=0;html=1;jettySize=auto;orthogonalLoop=1;fontSize=11;endArrow=block;endFill=0;endSize=8;strokeWidth=1;shadow=0;labelBackgroundColor=none;" edge="1" source="dIexNZIgWlCwj1Lqrp9l-11" target="dIexNZIgWlCwj1Lqrp9l-12" parent="WIyWlLk6GJQsqaUBKTNV-1">
          <mxGeometry y="10" relative="1" as="geometry">
            <mxPoint as="offset" />
          </mxGeometry>
        </mxCell>
        <mxCell id="dIexNZIgWlCwj1Lqrp9l-65" value="&lt;font style=&quot;font-size: 14px&quot;&gt;Yes&lt;/font&gt;" style="edgeStyle=orthogonalEdgeStyle;rounded=0;orthogonalLoop=1;jettySize=auto;html=1;fontSize=24;" edge="1" parent="WIyWlLk6GJQsqaUBKTNV-1" source="dIexNZIgWlCwj1Lqrp9l-11" target="dIexNZIgWlCwj1Lqrp9l-64">
          <mxGeometry relative="1" as="geometry" />
        </mxCell>
        <mxCell id="dIexNZIgWlCwj1Lqrp9l-11" value="Is there a table reservation?" style="rhombus;whiteSpace=wrap;html=1;shadow=0;fontFamily=Helvetica;fontSize=12;align=center;strokeWidth=1;spacing=6;spacingTop=-4;fillColor=#fff2cc;strokeColor=#d6b656;" vertex="1" parent="WIyWlLk6GJQsqaUBKTNV-1">
          <mxGeometry x="520" y="-870" width="200" height="90" as="geometry" />
        </mxCell>
        <mxCell id="dIexNZIgWlCwj1Lqrp9l-66" style="edgeStyle=orthogonalEdgeStyle;rounded=0;orthogonalLoop=1;jettySize=auto;html=1;entryX=1;entryY=0.5;entryDx=0;entryDy=0;fontSize=24;" edge="1" parent="WIyWlLk6GJQsqaUBKTNV-1" source="dIexNZIgWlCwj1Lqrp9l-12" target="dIexNZIgWlCwj1Lqrp9l-64">
          <mxGeometry relative="1" as="geometry">
            <Array as="points">
              <mxPoint x="830" y="-670" />
            </Array>
          </mxGeometry>
        </mxCell>
        <mxCell id="dIexNZIgWlCwj1Lqrp9l-12" value="Find an available table for them." style="rounded=1;whiteSpace=wrap;html=1;fontSize=12;glass=0;strokeWidth=1;shadow=0;" vertex="1" parent="WIyWlLk6GJQsqaUBKTNV-1">
          <mxGeometry x="770" y="-845" width="120" height="40" as="geometry" />
        </mxCell>
        <mxCell id="dIexNZIgWlCwj1Lqrp9l-13" value="Yes" style="rounded=0;html=1;jettySize=auto;orthogonalLoop=1;fontSize=11;endArrow=block;endFill=0;endSize=8;strokeWidth=1;shadow=0;labelBackgroundColor=none;edgeStyle=orthogonalEdgeStyle;" edge="1" source="dIexNZIgWlCwj1Lqrp9l-15" parent="WIyWlLk6GJQsqaUBKTNV-1">
          <mxGeometry x="0.3333" y="20" relative="1" as="geometry">
            <mxPoint as="offset" />
            <mxPoint x="620" y="-210" as="targetPoint" />
          </mxGeometry>
        </mxCell>
        <mxCell id="dIexNZIgWlCwj1Lqrp9l-14" value="No" style="edgeStyle=orthogonalEdgeStyle;rounded=0;html=1;jettySize=auto;orthogonalLoop=1;fontSize=11;endArrow=block;endFill=0;endSize=8;strokeWidth=1;shadow=0;labelBackgroundColor=none;entryX=0;entryY=0.5;entryDx=0;entryDy=0;" edge="1" source="dIexNZIgWlCwj1Lqrp9l-15" target="dIexNZIgWlCwj1Lqrp9l-17" parent="WIyWlLk6GJQsqaUBKTNV-1">
          <mxGeometry y="10" relative="1" as="geometry">
            <mxPoint as="offset" />
            <mxPoint x="770" y="-230" as="targetPoint" />
          </mxGeometry>
        </mxCell>
        <mxCell id="dIexNZIgWlCwj1Lqrp9l-15" value="Is the meal ready&lt;br&gt;&amp;nbsp;for the aliens?" style="rhombus;whiteSpace=wrap;html=1;shadow=0;fontFamily=Helvetica;fontSize=12;align=center;strokeWidth=1;spacing=6;spacingTop=-4;fillColor=#fff2cc;strokeColor=#d6b656;" vertex="1" parent="WIyWlLk6GJQsqaUBKTNV-1">
          <mxGeometry x="525" y="-370" width="190" height="80" as="geometry" />
        </mxCell>
        <mxCell id="dIexNZIgWlCwj1Lqrp9l-17" value="Urge the cook" style="rounded=1;whiteSpace=wrap;html=1;fontSize=12;glass=0;strokeWidth=1;shadow=0;" vertex="1" parent="WIyWlLk6GJQsqaUBKTNV-1">
          <mxGeometry x="780" y="-350" width="120" height="40" as="geometry" />
        </mxCell>
        <mxCell id="dIexNZIgWlCwj1Lqrp9l-60" value="" style="edgeStyle=orthogonalEdgeStyle;rounded=0;orthogonalLoop=1;jettySize=auto;html=1;" edge="1" parent="WIyWlLk6GJQsqaUBKTNV-1" source="dIexNZIgWlCwj1Lqrp9l-21" target="dIexNZIgWlCwj1Lqrp9l-59">
          <mxGeometry relative="1" as="geometry" />
        </mxCell>
        <mxCell id="dIexNZIgWlCwj1Lqrp9l-21" value="Start:&lt;br&gt;Aliens stepping in the restaurant." style="ellipse;whiteSpace=wrap;html=1;fillColor=#d5e8d4;strokeColor=#82b366;" vertex="1" parent="WIyWlLk6GJQsqaUBKTNV-1">
          <mxGeometry x="560" y="-1100" width="120" height="80" as="geometry" />
        </mxCell>
        <mxCell id="dIexNZIgWlCwj1Lqrp9l-52" value="" style="edgeStyle=orthogonalEdgeStyle;rounded=0;orthogonalLoop=1;jettySize=auto;html=1;" edge="1" parent="WIyWlLk6GJQsqaUBKTNV-1" source="dIexNZIgWlCwj1Lqrp9l-25" target="dIexNZIgWlCwj1Lqrp9l-51">
          <mxGeometry relative="1" as="geometry" />
        </mxCell>
        <mxCell id="dIexNZIgWlCwj1Lqrp9l-25" value="&lt;span&gt;Getting the menu.&lt;/span&gt;" style="shape=parallelogram;perimeter=parallelogramPerimeter;whiteSpace=wrap;html=1;fixedSize=1;fillColor=#67AB9F;" vertex="1" parent="WIyWlLk6GJQsqaUBKTNV-1">
          <mxGeometry x="120" y="-310" width="120" height="60" as="geometry" />
        </mxCell>
        <mxCell id="dIexNZIgWlCwj1Lqrp9l-36" value="" style="edgeStyle=orthogonalEdgeStyle;rounded=0;orthogonalLoop=1;jettySize=auto;html=1;" edge="1" parent="WIyWlLk6GJQsqaUBKTNV-1" source="dIexNZIgWlCwj1Lqrp9l-26" target="dIexNZIgWlCwj1Lqrp9l-5">
          <mxGeometry relative="1" as="geometry" />
        </mxCell>
        <mxCell id="dIexNZIgWlCwj1Lqrp9l-26" value="Sit down to a table" style="rounded=1;whiteSpace=wrap;html=1;fontSize=12;glass=0;strokeWidth=1;shadow=0;" vertex="1" parent="WIyWlLk6GJQsqaUBKTNV-1">
          <mxGeometry x="50" y="-800" width="120" height="40" as="geometry" />
        </mxCell>
        <mxCell id="dIexNZIgWlCwj1Lqrp9l-32" value="" style="edgeStyle=orthogonalEdgeStyle;rounded=0;orthogonalLoop=1;jettySize=auto;html=1;" edge="1" parent="WIyWlLk6GJQsqaUBKTNV-1" source="dIexNZIgWlCwj1Lqrp9l-30" target="WIyWlLk6GJQsqaUBKTNV-6">
          <mxGeometry relative="1" as="geometry" />
        </mxCell>
        <mxCell id="dIexNZIgWlCwj1Lqrp9l-30" value="Greet the waiters" style="rounded=1;whiteSpace=wrap;html=1;fontSize=12;glass=0;strokeWidth=1;shadow=0;" vertex="1" parent="WIyWlLk6GJQsqaUBKTNV-1">
          <mxGeometry x="50" y="-990" width="120" height="40" as="geometry" />
        </mxCell>
        <mxCell id="dIexNZIgWlCwj1Lqrp9l-45" value="" style="edgeStyle=orthogonalEdgeStyle;rounded=0;orthogonalLoop=1;jettySize=auto;html=1;" edge="1" parent="WIyWlLk6GJQsqaUBKTNV-1" source="dIexNZIgWlCwj1Lqrp9l-37" target="WIyWlLk6GJQsqaUBKTNV-10">
          <mxGeometry relative="1" as="geometry" />
        </mxCell>
        <mxCell id="dIexNZIgWlCwj1Lqrp9l-37" value="Ask for the menu." style="rounded=1;whiteSpace=wrap;html=1;fontSize=12;glass=0;strokeWidth=1;shadow=0;" vertex="1" parent="WIyWlLk6GJQsqaUBKTNV-1">
          <mxGeometry x="50" y="-605.5" width="120" height="40" as="geometry" />
        </mxCell>
        <mxCell id="dIexNZIgWlCwj1Lqrp9l-44" style="edgeStyle=orthogonalEdgeStyle;rounded=0;orthogonalLoop=1;jettySize=auto;html=1;entryX=1;entryY=0.5;entryDx=0;entryDy=0;" edge="1" parent="WIyWlLk6GJQsqaUBKTNV-1" source="dIexNZIgWlCwj1Lqrp9l-41" target="dIexNZIgWlCwj1Lqrp9l-37">
          <mxGeometry relative="1" as="geometry">
            <Array as="points">
              <mxPoint x="320" y="-585" />
              <mxPoint x="215" y="-585" />
            </Array>
          </mxGeometry>
        </mxCell>
        <mxCell id="dIexNZIgWlCwj1Lqrp9l-41" value="Wait for him/her to come to your table." style="rounded=1;whiteSpace=wrap;html=1;fontSize=12;glass=0;strokeWidth=1;shadow=0;" vertex="1" parent="WIyWlLk6GJQsqaUBKTNV-1">
          <mxGeometry x="260" y="-705" width="120" height="40" as="geometry" />
        </mxCell>
        <mxCell id="dIexNZIgWlCwj1Lqrp9l-48" style="edgeStyle=orthogonalEdgeStyle;rounded=0;orthogonalLoop=1;jettySize=auto;html=1;entryX=1;entryY=0.5;entryDx=0;entryDy=0;" edge="1" parent="WIyWlLk6GJQsqaUBKTNV-1" source="dIexNZIgWlCwj1Lqrp9l-46" target="WIyWlLk6GJQsqaUBKTNV-11">
          <mxGeometry relative="1" as="geometry">
            <Array as="points">
              <mxPoint x="320" y="-370" />
            </Array>
          </mxGeometry>
        </mxCell>
        <mxCell id="dIexNZIgWlCwj1Lqrp9l-46" value="Ask the waiter to help you choose." style="rounded=1;whiteSpace=wrap;html=1;fontSize=12;glass=0;strokeWidth=1;shadow=0;" vertex="1" parent="WIyWlLk6GJQsqaUBKTNV-1">
          <mxGeometry x="260" y="-510" width="120" height="40" as="geometry" />
        </mxCell>
        <mxCell id="dIexNZIgWlCwj1Lqrp9l-54" value="" style="edgeStyle=orthogonalEdgeStyle;rounded=0;orthogonalLoop=1;jettySize=auto;html=1;" edge="1" parent="WIyWlLk6GJQsqaUBKTNV-1" source="dIexNZIgWlCwj1Lqrp9l-51" target="dIexNZIgWlCwj1Lqrp9l-53">
          <mxGeometry relative="1" as="geometry" />
        </mxCell>
        <mxCell id="dIexNZIgWlCwj1Lqrp9l-51" value="Eat the meal and when you are finished ask the waiter for the bill." style="rounded=1;whiteSpace=wrap;html=1;fontSize=12;glass=0;strokeWidth=1;shadow=0;" vertex="1" parent="WIyWlLk6GJQsqaUBKTNV-1">
          <mxGeometry x="125" y="-200" width="120" height="90" as="geometry" />
        </mxCell>
        <mxCell id="dIexNZIgWlCwj1Lqrp9l-56" value="Yes" style="edgeStyle=orthogonalEdgeStyle;rounded=0;orthogonalLoop=1;jettySize=auto;html=1;entryX=1;entryY=0.5;entryDx=0;entryDy=0;" edge="1" parent="WIyWlLk6GJQsqaUBKTNV-1" source="dIexNZIgWlCwj1Lqrp9l-53" target="dIexNZIgWlCwj1Lqrp9l-101">
          <mxGeometry x="0.0689" relative="1" as="geometry">
            <mxPoint x="350" y="40" as="targetPoint" />
            <Array as="points">
              <mxPoint x="374" y="-30" />
              <mxPoint x="374" y="190" />
            </Array>
            <mxPoint as="offset" />
          </mxGeometry>
        </mxCell>
        <mxCell id="dIexNZIgWlCwj1Lqrp9l-57" value="" style="edgeStyle=orthogonalEdgeStyle;rounded=0;orthogonalLoop=1;jettySize=auto;html=1;entryX=0.5;entryY=0;entryDx=0;entryDy=0;" edge="1" parent="WIyWlLk6GJQsqaUBKTNV-1" source="dIexNZIgWlCwj1Lqrp9l-53" target="dIexNZIgWlCwj1Lqrp9l-99">
          <mxGeometry x="-0.2" relative="1" as="geometry">
            <mxPoint x="60" y="90" as="targetPoint" />
            <Array as="points">
              <mxPoint x="60" y="-30" />
            </Array>
            <mxPoint as="offset" />
          </mxGeometry>
        </mxCell>
        <mxCell id="dIexNZIgWlCwj1Lqrp9l-98" value="No" style="edgeLabel;html=1;align=center;verticalAlign=middle;resizable=0;points=[];fontSize=14;" vertex="1" connectable="0" parent="dIexNZIgWlCwj1Lqrp9l-57">
          <mxGeometry x="-0.5311" y="-2" relative="1" as="geometry">
            <mxPoint x="-8" y="73" as="offset" />
          </mxGeometry>
        </mxCell>
        <mxCell id="dIexNZIgWlCwj1Lqrp9l-53" value="Received the bill?" style="rhombus;whiteSpace=wrap;html=1;shadow=0;fontFamily=Helvetica;fontSize=12;align=center;strokeWidth=1;spacing=6;spacingTop=-4;fillColor=#fff2cc;strokeColor=#d6b656;" vertex="1" parent="WIyWlLk6GJQsqaUBKTNV-1">
          <mxGeometry x="90" y="-70" width="190" height="80" as="geometry" />
        </mxCell>
        <mxCell id="dIexNZIgWlCwj1Lqrp9l-78" value="" style="edgeStyle=orthogonalEdgeStyle;rounded=0;orthogonalLoop=1;jettySize=auto;html=1;fontSize=14;" edge="1" parent="WIyWlLk6GJQsqaUBKTNV-1" source="dIexNZIgWlCwj1Lqrp9l-58" target="dIexNZIgWlCwj1Lqrp9l-77">
          <mxGeometry relative="1" as="geometry" />
        </mxCell>
        <mxCell id="dIexNZIgWlCwj1Lqrp9l-58" value="&lt;span&gt;Serve the aliens.&lt;br&gt;&lt;/span&gt;" style="shape=parallelogram;perimeter=parallelogramPerimeter;whiteSpace=wrap;html=1;fixedSize=1;fillColor=#67AB9F;" vertex="1" parent="WIyWlLk6GJQsqaUBKTNV-1">
          <mxGeometry x="560" y="-210" width="120" height="60" as="geometry" />
        </mxCell>
        <mxCell id="dIexNZIgWlCwj1Lqrp9l-63" style="edgeStyle=orthogonalEdgeStyle;rounded=0;orthogonalLoop=1;jettySize=auto;html=1;exitX=0.5;exitY=1;exitDx=0;exitDy=0;fontSize=24;" edge="1" parent="WIyWlLk6GJQsqaUBKTNV-1" source="dIexNZIgWlCwj1Lqrp9l-59">
          <mxGeometry relative="1" as="geometry">
            <mxPoint x="620" y="-940" as="targetPoint" />
          </mxGeometry>
        </mxCell>
        <mxCell id="dIexNZIgWlCwj1Lqrp9l-59" value="Greet them and ask them if they&#39;ve reserved a table." style="rounded=1;whiteSpace=wrap;html=1;fontSize=12;glass=0;strokeWidth=1;shadow=0;" vertex="1" parent="WIyWlLk6GJQsqaUBKTNV-1">
          <mxGeometry x="560" y="-1000" width="120" height="60" as="geometry" />
        </mxCell>
        <mxCell id="dIexNZIgWlCwj1Lqrp9l-61" value="&lt;font style=&quot;font-size: 24px&quot;&gt;Alien&#39;s perspective&lt;/font&gt;" style="text;html=1;strokeColor=none;fillColor=none;align=center;verticalAlign=middle;whiteSpace=wrap;rounded=0;" vertex="1" parent="WIyWlLk6GJQsqaUBKTNV-1">
          <mxGeometry x="100" y="-1220" width="130" height="30" as="geometry" />
        </mxCell>
        <mxCell id="dIexNZIgWlCwj1Lqrp9l-62" value="&lt;font style=&quot;font-size: 24px&quot;&gt;Waiter&#39;s&lt;br&gt;perspective&lt;/font&gt;" style="text;html=1;strokeColor=none;fillColor=none;align=center;verticalAlign=middle;whiteSpace=wrap;rounded=0;" vertex="1" parent="WIyWlLk6GJQsqaUBKTNV-1">
          <mxGeometry x="560" y="-1220" width="130" height="30" as="geometry" />
        </mxCell>
        <mxCell id="dIexNZIgWlCwj1Lqrp9l-73" value="" style="edgeStyle=orthogonalEdgeStyle;rounded=0;orthogonalLoop=1;jettySize=auto;html=1;fontSize=14;" edge="1" parent="WIyWlLk6GJQsqaUBKTNV-1" source="dIexNZIgWlCwj1Lqrp9l-64" target="dIexNZIgWlCwj1Lqrp9l-67">
          <mxGeometry relative="1" as="geometry" />
        </mxCell>
        <mxCell id="dIexNZIgWlCwj1Lqrp9l-64" value="Get them seated. And give them the menu." style="rounded=1;whiteSpace=wrap;html=1;fontSize=12;glass=0;strokeWidth=1;shadow=0;" vertex="1" parent="WIyWlLk6GJQsqaUBKTNV-1">
          <mxGeometry x="560" y="-690" width="120" height="40" as="geometry" />
        </mxCell>
        <mxCell id="dIexNZIgWlCwj1Lqrp9l-67" value="Do they know what&lt;br&gt;they want to order?" style="rhombus;whiteSpace=wrap;html=1;shadow=0;fontFamily=Helvetica;fontSize=12;align=center;strokeWidth=1;spacing=6;spacingTop=-4;fillColor=#fff2cc;strokeColor=#d6b656;" vertex="1" parent="WIyWlLk6GJQsqaUBKTNV-1">
          <mxGeometry x="525" y="-610" width="190" height="80" as="geometry" />
        </mxCell>
        <mxCell id="dIexNZIgWlCwj1Lqrp9l-68" value="Yes" style="rounded=0;html=1;jettySize=auto;orthogonalLoop=1;fontSize=11;endArrow=block;endFill=0;endSize=8;strokeWidth=1;shadow=0;labelBackgroundColor=none;edgeStyle=orthogonalEdgeStyle;exitX=0.5;exitY=1;exitDx=0;exitDy=0;" edge="1" parent="WIyWlLk6GJQsqaUBKTNV-1" target="dIexNZIgWlCwj1Lqrp9l-70" source="dIexNZIgWlCwj1Lqrp9l-67">
          <mxGeometry x="0.3333" y="20" relative="1" as="geometry">
            <mxPoint as="offset" />
            <mxPoint x="630" y="-524" as="sourcePoint" />
          </mxGeometry>
        </mxCell>
        <mxCell id="dIexNZIgWlCwj1Lqrp9l-69" value="no" style="edgeStyle=orthogonalEdgeStyle;rounded=0;orthogonalLoop=1;jettySize=auto;html=1;exitX=0.965;exitY=0.498;exitDx=0;exitDy=0;exitPerimeter=0;" edge="1" parent="WIyWlLk6GJQsqaUBKTNV-1" target="dIexNZIgWlCwj1Lqrp9l-72" source="dIexNZIgWlCwj1Lqrp9l-67">
          <mxGeometry relative="1" as="geometry">
            <mxPoint x="725" y="-564" as="sourcePoint" />
          </mxGeometry>
        </mxCell>
        <mxCell id="dIexNZIgWlCwj1Lqrp9l-74" value="" style="edgeStyle=orthogonalEdgeStyle;rounded=0;orthogonalLoop=1;jettySize=auto;html=1;fontSize=14;" edge="1" parent="WIyWlLk6GJQsqaUBKTNV-1" source="dIexNZIgWlCwj1Lqrp9l-70" target="dIexNZIgWlCwj1Lqrp9l-15">
          <mxGeometry relative="1" as="geometry" />
        </mxCell>
        <mxCell id="dIexNZIgWlCwj1Lqrp9l-70" value="Order the chosen meal from the cook." style="rounded=1;whiteSpace=wrap;html=1;fontSize=12;glass=0;strokeWidth=1;shadow=0;" vertex="1" parent="WIyWlLk6GJQsqaUBKTNV-1">
          <mxGeometry x="560" y="-464" width="120" height="40" as="geometry" />
        </mxCell>
        <mxCell id="dIexNZIgWlCwj1Lqrp9l-71" style="edgeStyle=orthogonalEdgeStyle;rounded=0;orthogonalLoop=1;jettySize=auto;html=1;entryX=1;entryY=0.5;entryDx=0;entryDy=0;" edge="1" parent="WIyWlLk6GJQsqaUBKTNV-1" source="dIexNZIgWlCwj1Lqrp9l-72" target="dIexNZIgWlCwj1Lqrp9l-70">
          <mxGeometry relative="1" as="geometry">
            <Array as="points">
              <mxPoint x="840" y="-444" />
            </Array>
          </mxGeometry>
        </mxCell>
        <mxCell id="dIexNZIgWlCwj1Lqrp9l-72" value="Help them to choose a meal." style="rounded=1;whiteSpace=wrap;html=1;fontSize=12;glass=0;strokeWidth=1;shadow=0;" vertex="1" parent="WIyWlLk6GJQsqaUBKTNV-1">
          <mxGeometry x="780" y="-590" width="120" height="40" as="geometry" />
        </mxCell>
        <mxCell id="dIexNZIgWlCwj1Lqrp9l-81" value="" style="edgeStyle=orthogonalEdgeStyle;rounded=0;orthogonalLoop=1;jettySize=auto;html=1;fontSize=14;" edge="1" parent="WIyWlLk6GJQsqaUBKTNV-1" source="dIexNZIgWlCwj1Lqrp9l-77" target="dIexNZIgWlCwj1Lqrp9l-80">
          <mxGeometry relative="1" as="geometry" />
        </mxCell>
        <mxCell id="dIexNZIgWlCwj1Lqrp9l-83" value="yes" style="edgeStyle=orthogonalEdgeStyle;rounded=0;orthogonalLoop=1;jettySize=auto;html=1;fontSize=14;" edge="1" parent="WIyWlLk6GJQsqaUBKTNV-1" source="dIexNZIgWlCwj1Lqrp9l-77" target="dIexNZIgWlCwj1Lqrp9l-82">
          <mxGeometry relative="1" as="geometry" />
        </mxCell>
        <mxCell id="dIexNZIgWlCwj1Lqrp9l-77" value="Have they finished the&lt;br&gt;&amp;nbsp;meal and want to pay?" style="rhombus;whiteSpace=wrap;html=1;shadow=0;fontFamily=Helvetica;fontSize=12;align=center;strokeWidth=1;spacing=6;spacingTop=-4;fillColor=#fff2cc;strokeColor=#d6b656;" vertex="1" parent="WIyWlLk6GJQsqaUBKTNV-1">
          <mxGeometry x="535" y="-100" width="190" height="80" as="geometry" />
        </mxCell>
        <mxCell id="dIexNZIgWlCwj1Lqrp9l-79" value="No" style="edgeStyle=orthogonalEdgeStyle;rounded=0;html=1;jettySize=auto;orthogonalLoop=1;fontSize=11;endArrow=block;endFill=0;endSize=8;strokeWidth=1;shadow=0;labelBackgroundColor=none;entryX=0;entryY=0.5;entryDx=0;entryDy=0;exitX=0.967;exitY=0.493;exitDx=0;exitDy=0;exitPerimeter=0;" edge="1" parent="WIyWlLk6GJQsqaUBKTNV-1" target="dIexNZIgWlCwj1Lqrp9l-80" source="dIexNZIgWlCwj1Lqrp9l-77">
          <mxGeometry y="10" relative="1" as="geometry">
            <mxPoint as="offset" />
            <mxPoint x="720" y="-60" as="sourcePoint" />
            <mxPoint x="775" y="40" as="targetPoint" />
          </mxGeometry>
        </mxCell>
        <mxCell id="dIexNZIgWlCwj1Lqrp9l-80" value="Wait till they finish" style="rounded=1;whiteSpace=wrap;html=1;fontSize=12;glass=0;strokeWidth=1;shadow=0;" vertex="1" parent="WIyWlLk6GJQsqaUBKTNV-1">
          <mxGeometry x="785" y="-80" width="120" height="40" as="geometry" />
        </mxCell>
        <mxCell id="dIexNZIgWlCwj1Lqrp9l-88" value="" style="edgeStyle=orthogonalEdgeStyle;rounded=0;orthogonalLoop=1;jettySize=auto;html=1;fontSize=14;" edge="1" parent="WIyWlLk6GJQsqaUBKTNV-1" source="dIexNZIgWlCwj1Lqrp9l-82" target="dIexNZIgWlCwj1Lqrp9l-87">
          <mxGeometry relative="1" as="geometry" />
        </mxCell>
        <mxCell id="dIexNZIgWlCwj1Lqrp9l-82" value="Give them the bill and ask them to pay." style="rounded=1;whiteSpace=wrap;html=1;fontSize=12;glass=0;strokeWidth=1;shadow=0;" vertex="1" parent="WIyWlLk6GJQsqaUBKTNV-1">
          <mxGeometry x="570" y="40" width="120" height="90" as="geometry" />
        </mxCell>
        <mxCell id="dIexNZIgWlCwj1Lqrp9l-84" value="End:&lt;br&gt;They leave the restaurant" style="ellipse;whiteSpace=wrap;html=1;fillColor=#d5e8d4;strokeColor=#82b366;" vertex="1" parent="WIyWlLk6GJQsqaUBKTNV-1">
          <mxGeometry x="595" y="430" width="120" height="80" as="geometry" />
        </mxCell>
        <mxCell id="dIexNZIgWlCwj1Lqrp9l-91" value="No, they ran away" style="edgeStyle=orthogonalEdgeStyle;rounded=0;orthogonalLoop=1;jettySize=auto;html=1;fontSize=14;" edge="1" parent="WIyWlLk6GJQsqaUBKTNV-1" source="dIexNZIgWlCwj1Lqrp9l-87">
          <mxGeometry relative="1" as="geometry">
            <mxPoint x="820" y="260" as="targetPoint" />
          </mxGeometry>
        </mxCell>
        <mxCell id="dIexNZIgWlCwj1Lqrp9l-96" value="Yes" style="edgeStyle=orthogonalEdgeStyle;rounded=0;orthogonalLoop=1;jettySize=auto;html=1;entryX=0.5;entryY=0;entryDx=0;entryDy=0;fontSize=14;" edge="1" parent="WIyWlLk6GJQsqaUBKTNV-1" source="dIexNZIgWlCwj1Lqrp9l-87" target="dIexNZIgWlCwj1Lqrp9l-95">
          <mxGeometry relative="1" as="geometry" />
        </mxCell>
        <mxCell id="dIexNZIgWlCwj1Lqrp9l-87" value="Did the pay?" style="rhombus;whiteSpace=wrap;html=1;shadow=0;fontFamily=Helvetica;fontSize=12;align=center;strokeWidth=1;spacing=6;spacingTop=-4;fillColor=#fff2cc;strokeColor=#d6b656;" vertex="1" parent="WIyWlLk6GJQsqaUBKTNV-1">
          <mxGeometry x="540" y="170" width="190" height="80" as="geometry" />
        </mxCell>
        <mxCell id="dIexNZIgWlCwj1Lqrp9l-94" style="edgeStyle=orthogonalEdgeStyle;rounded=0;orthogonalLoop=1;jettySize=auto;html=1;entryX=1;entryY=0.5;entryDx=0;entryDy=0;fontSize=14;" edge="1" parent="WIyWlLk6GJQsqaUBKTNV-1" source="dIexNZIgWlCwj1Lqrp9l-93" target="dIexNZIgWlCwj1Lqrp9l-84">
          <mxGeometry relative="1" as="geometry">
            <Array as="points">
              <mxPoint x="820" y="410" />
            </Array>
          </mxGeometry>
        </mxCell>
        <mxCell id="dIexNZIgWlCwj1Lqrp9l-93" value="Call the&lt;br&gt;&quot;Men In Black&quot;" style="rounded=1;whiteSpace=wrap;html=1;fontSize=12;glass=0;strokeWidth=1;shadow=0;" vertex="1" parent="WIyWlLk6GJQsqaUBKTNV-1">
          <mxGeometry x="760" y="260" width="120" height="90" as="geometry" />
        </mxCell>
        <mxCell id="dIexNZIgWlCwj1Lqrp9l-97" style="edgeStyle=orthogonalEdgeStyle;rounded=0;orthogonalLoop=1;jettySize=auto;html=1;entryX=0.005;entryY=0.617;entryDx=0;entryDy=0;entryPerimeter=0;fontSize=14;" edge="1" parent="WIyWlLk6GJQsqaUBKTNV-1" source="dIexNZIgWlCwj1Lqrp9l-95" target="dIexNZIgWlCwj1Lqrp9l-84">
          <mxGeometry relative="1" as="geometry" />
        </mxCell>
        <mxCell id="dIexNZIgWlCwj1Lqrp9l-95" value="Wish them a good day." style="rounded=1;whiteSpace=wrap;html=1;fontSize=12;glass=0;strokeWidth=1;shadow=0;" vertex="1" parent="WIyWlLk6GJQsqaUBKTNV-1">
          <mxGeometry x="405" y="300" width="120" height="90" as="geometry" />
        </mxCell>
        <mxCell id="dIexNZIgWlCwj1Lqrp9l-100" style="edgeStyle=orthogonalEdgeStyle;rounded=0;orthogonalLoop=1;jettySize=auto;html=1;entryX=0.008;entryY=0.613;entryDx=0;entryDy=0;entryPerimeter=0;fontSize=14;" edge="1" parent="WIyWlLk6GJQsqaUBKTNV-1" source="dIexNZIgWlCwj1Lqrp9l-99" target="dIexNZIgWlCwj1Lqrp9l-2">
          <mxGeometry relative="1" as="geometry">
            <Array as="points">
              <mxPoint x="70" y="339" />
            </Array>
          </mxGeometry>
        </mxCell>
        <mxCell id="dIexNZIgWlCwj1Lqrp9l-99" value="Run away because you don&#39;t have local currency" style="rounded=1;whiteSpace=wrap;html=1;fontSize=12;glass=0;strokeWidth=1;shadow=0;" vertex="1" parent="WIyWlLk6GJQsqaUBKTNV-1">
          <mxGeometry x="20" y="140" width="80" height="70" as="geometry" />
        </mxCell>
        <mxCell id="dIexNZIgWlCwj1Lqrp9l-106" style="edgeStyle=orthogonalEdgeStyle;rounded=0;orthogonalLoop=1;jettySize=auto;html=1;entryX=1;entryY=0.5;entryDx=0;entryDy=0;fontSize=14;" edge="1" parent="WIyWlLk6GJQsqaUBKTNV-1" source="dIexNZIgWlCwj1Lqrp9l-101" target="dIexNZIgWlCwj1Lqrp9l-2">
          <mxGeometry relative="1" as="geometry" />
        </mxCell>
        <mxCell id="dIexNZIgWlCwj1Lqrp9l-101" value="Run away because you don&#39;t have local currency" style="rounded=1;whiteSpace=wrap;html=1;fontSize=12;glass=0;strokeWidth=1;shadow=0;" vertex="1" parent="WIyWlLk6GJQsqaUBKTNV-1">
          <mxGeometry x="245" y="150" width="80" height="80" as="geometry" />
        </mxCell>
      </root>
    </mxGraphModel>
  </diagram>
</mxfile>
